<svg xmlns="http://www.w3.org/2000/svg" width="24" height="24" viewBox="0 0 24 24">
  <path fill="#fff" d="M17.05 12.314c-.031-3.119 2.547-4.619 2.661-4.689-1.449-2.121-3.707-2.413-4.512-2.446-1.923-.194-3.75 1.13-4.726 1.13-.975 0-2.483-1.102-4.083-1.073-2.101.031-4.035 1.222-5.117 3.104-2.18 3.783-.559 9.392 1.566 12.459 1.037 1.504 2.275 3.191 3.899 3.131 1.564-.062 2.157-1.012 4.047-1.012 1.891 0 2.42 1.012 4.078.981 1.682-.031 2.749-1.53 3.779-3.039 1.191-1.739 1.682-3.422 1.711-3.508-.037-.016-3.281-1.259-3.303-4.998zm-3.096-9.185c.863-1.046 1.445-2.496 1.286-3.943-1.242.05-2.749.827-3.641 1.87-.801.925-1.502 2.402-1.314 3.821 1.386.108 2.801-.704 3.669-1.748z"/>
</svg> 