<svg xmlns="http://www.w3.org/2000/svg" xmlns:xlink="http://www.w3.org/1999/xlink" width="1080" zoomAndPan="magnify" viewBox="0 0 810 809.999993" height="1080" preserveAspectRatio="xMidYMid meet" version="1.0"><defs><clipPath id="2aef7bb419"><path d="M 128 245 L 208 245 L 208 338.382812 L 128 338.382812 Z M 128 245 " clip-rule="nonzero"/></clipPath><clipPath id="bcff20ce19"><path d="M 624.359375 511.382812 L 714.359375 511.382812 L 714.359375 601.382812 L 624.359375 601.382812 Z M 624.359375 511.382812 " clip-rule="nonzero"/></clipPath><clipPath id="49590d378b"><path d="M 81 358.066406 L 161 358.066406 L 161 451.816406 L 81 451.816406 Z M 81 358.066406 " clip-rule="nonzero"/></clipPath><clipPath id="6be6ea9580"><path d="M 342.800781 0 L 450.050781 0 L 450.050781 107.25 L 342.800781 107.25 Z M 342.800781 0 " clip-rule="nonzero"/></clipPath><clipPath id="a65f8aad01"><path d="M 607 262 L 690 262 L 690 338 L 607 338 Z M 607 262 " clip-rule="nonzero"/></clipPath><clipPath id="ce55815bc4"><path d="M 624.355469 211.972656 L 715.570312 303.1875 L 624.355469 394.40625 L 533.136719 303.1875 Z M 624.355469 211.972656 " clip-rule="nonzero"/></clipPath><clipPath id="cd63ffc45c"><path d="M 624.355469 211.972656 L 715.570312 303.1875 L 624.355469 394.40625 L 533.136719 303.1875 Z M 624.355469 211.972656 " clip-rule="nonzero"/></clipPath><clipPath id="8c1115aeda"><path d="M 559 268 L 641 268 L 641 344 L 559 344 Z M 559 268 " clip-rule="nonzero"/></clipPath><clipPath id="22f5e1fc2a"><path d="M 624.355469 211.972656 L 715.570312 303.1875 L 624.355469 394.40625 L 533.136719 303.1875 Z M 624.355469 211.972656 " clip-rule="nonzero"/></clipPath><clipPath id="545df45a63"><path d="M 624.355469 211.972656 L 715.570312 303.1875 L 624.355469 394.40625 L 533.136719 303.1875 Z M 624.355469 211.972656 " clip-rule="nonzero"/></clipPath><clipPath id="18cc254d56"><path d="M 241 104.566406 L 308 104.566406 L 308 138 L 241 138 Z M 241 104.566406 " clip-rule="nonzero"/></clipPath></defs><path fill="#cccccc" d="M 690.515625 481.035156 L 570.699219 481.035156 L 655.746094 369.480469 C 659.492188 364.972656 659.492188 358.214844 655.746094 354.269531 C 651.46875 350.324219 645.585938 350.890625 641.839844 354.832031 L 585.675781 426.386719 L 585.675781 351.453125 C 585.675781 346.945312 581.933594 343.566406 577.652344 343.566406 C 573.375 343.566406 570.164062 346.945312 570.164062 351.453125 L 570.164062 428.636719 L 486.1875 541.320312 L 431.09375 586.390625 L 431.09375 429.765625 L 542.886719 312.015625 C 547.699219 306.941406 548.234375 297.929688 542.886719 292.292969 C 538.070312 287.222656 529.515625 287.789062 524.699219 292.859375 L 470.140625 350.324219 L 464.257812 279.335938 L 559.46875 179.050781 C 563.210938 175.105469 563.210938 168.910156 559.46875 164.964844 C 555.722656 161.023438 549.839844 161.023438 546.09375 164.964844 L 461.046875 254.546875 L 446.070312 112.570312 C 446.070312 106.371094 441.257812 101.863281 435.90625 101.863281 C 430.023438 101.863281 426.28125 106.933594 426.28125 112.570312 L 434.839844 204.96875 L 384.558594 152.007812 C 381.347656 148.625 376.535156 149.191406 373.324219 152.007812 C 370.117188 155.386719 370.652344 159.894531 373.324219 163.273438 L 425.210938 217.925781 L 440.722656 359.902344 L 391.511719 411.738281 C 391.511719 411.738281 382.953125 421.3125 382.953125 432.582031 C 382.953125 438.214844 382.953125 483.851562 382.953125 531.179688 C 382.953125 556.53125 382.953125 582.449219 382.953125 602.167969 C 382.953125 623.011719 382.953125 637.097656 382.953125 637.097656 L 367.441406 619.632812 L 333.742188 584.136719 L 296.300781 544.699219 L 296.300781 326.664062 L 341.765625 278.773438 C 344.976562 275.390625 344.976562 270.320312 341.765625 266.941406 C 338.558594 263.5625 333.742188 263.5625 330.535156 266.941406 L 285.605469 314.265625 L 285.605469 221.304688 C 285.605469 215.109375 280.789062 210.039062 274.90625 210.039062 C 269.023438 210.601562 264.207031 215.109375 264.207031 221.304688 L 264.742188 404.414062 L 206.976562 343.566406 C 202.160156 338.492188 194.671875 338.492188 189.859375 343.566406 C 185.578125 348.070312 185.578125 355.960938 189.859375 361.03125 L 264.207031 439.34375 L 264.207031 524.980469 L 183.976562 439.90625 C 178.089844 433.710938 167.929688 433.710938 162.042969 440.46875 C 156.160156 446.667969 156.160156 456.808594 162.042969 463.007812 L 304.859375 613.433594 L 338.558594 648.929688 L 382.953125 695.691406 L 382.953125 808.375 L 430.558594 808.375 L 430.558594 627.519531 L 485.652344 582.449219 L 589.957031 582.449219 C 596.910156 582.449219 603.328125 576.25 603.328125 568.363281 C 603.328125 561.039062 596.910156 554.839844 589.957031 554.839844 L 512.933594 554.839844 L 556.792969 500.191406 L 691.050781 500.191406 C 696.398438 500.191406 700.144531 495.683594 700.144531 490.050781 C 700.144531 485.542969 695.863281 481.035156 690.515625 481.035156 Z M 690.515625 481.035156 " fill-opacity="1" fill-rule="nonzero"/><g clip-path="url(#2aef7bb419)"><path fill="#737373" d="M 138.894531 254.019531 C 138.085938 254.019531 137.429688 254.675781 137.429688 255.484375 L 137.429688 311.507812 C 137.429688 312.03125 137.710938 312.515625 138.164062 312.777344 L 166.664062 329.214844 C 167.109375 329.472656 167.652344 329.476562 168.101562 329.230469 L 198.261719 312.707031 C 198.730469 312.449219 199.023438 311.957031 199.023438 311.417969 L 199.023438 255.484375 C 199.023438 254.675781 198.367188 254.019531 197.554688 254.019531 Z M 128.628906 255.484375 C 128.628906 249.816406 133.226562 245.21875 138.894531 245.21875 L 197.554688 245.21875 C 203.226562 245.21875 207.820312 249.816406 207.820312 255.484375 L 207.820312 311.417969 C 207.820312 315.167969 205.777344 318.621094 202.488281 320.421875 L 172.328125 336.949219 C 169.1875 338.671875 165.371094 338.628906 162.269531 336.835938 L 133.765625 320.398438 C 130.589844 318.566406 128.628906 315.175781 128.628906 311.507812 Z M 150.628906 270.148438 C 150.628906 267.71875 152.597656 265.75 155.027344 265.75 L 182.101562 265.75 C 184.53125 265.75 186.5 267.71875 186.5 270.148438 L 186.5 305.910156 C 186.5 307.574219 185.558594 309.097656 184.070312 309.84375 L 170.53125 316.613281 C 169.292969 317.230469 167.835938 317.230469 166.597656 316.613281 L 153.058594 309.84375 C 151.570312 309.097656 150.628906 307.574219 150.628906 305.910156 L 150.628906 302.523438 C 150.628906 300.09375 152.597656 298.125 155.027344 298.125 C 157.457031 298.125 159.425781 300.09375 159.425781 302.523438 L 159.425781 303.191406 L 168.5625 307.757812 L 177.703125 303.191406 L 177.703125 293.386719 L 162.359375 293.386719 C 159.929688 293.386719 157.960938 291.417969 157.960938 288.988281 C 157.960938 286.558594 159.929688 284.589844 162.359375 284.589844 L 177.703125 284.589844 L 177.703125 274.546875 L 155.027344 274.546875 C 152.597656 274.546875 150.628906 272.578125 150.628906 270.148438 Z M 150.628906 270.148438 " fill-opacity="1" fill-rule="nonzero"/></g><g clip-path="url(#bcff20ce19)"><path fill="#737373" d="M 708.933594 542.957031 L 682.996094 517.023438 C 682.144531 516.183594 681.21875 515.429688 680.226562 514.761719 C 679.230469 514.09375 678.183594 513.527344 677.082031 513.054688 C 675.980469 512.585938 674.84375 512.21875 673.675781 511.960938 C 672.507812 511.703125 671.324219 511.554688 670.128906 511.519531 C 668.929688 511.484375 667.742188 511.558594 666.558594 511.746094 C 665.375 511.933594 664.21875 512.226562 663.09375 512.628906 C 661.964844 513.035156 660.882812 513.539062 659.851562 514.144531 C 658.816406 514.75 657.851562 515.445312 656.949219 516.234375 L 667.546875 526.832031 C 667.816406 526.738281 668.085938 526.65625 668.363281 526.59375 C 668.640625 526.53125 668.921875 526.488281 669.203125 526.457031 C 669.488281 526.429688 669.769531 526.417969 670.054688 526.421875 C 670.335938 526.429688 670.621094 526.453125 670.902344 526.492188 C 671.183594 526.53125 671.460938 526.585938 671.734375 526.660156 C 672.007812 526.734375 672.277344 526.824219 672.542969 526.929688 C 672.804688 527.035156 673.0625 527.15625 673.308594 527.292969 C 673.558594 527.429688 673.800781 527.582031 674.03125 527.746094 C 674.261719 527.914062 674.480469 528.089844 674.6875 528.285156 C 674.898438 528.476562 675.09375 528.679688 675.277344 528.894531 C 675.464844 529.113281 675.632812 529.339844 675.789062 529.574219 C 675.949219 529.8125 676.089844 530.058594 676.21875 530.3125 C 676.34375 530.566406 676.457031 530.824219 676.550781 531.09375 C 676.648438 531.359375 676.726562 531.632812 676.789062 531.910156 C 676.851562 532.1875 676.898438 532.464844 676.925781 532.75 C 676.957031 533.03125 676.96875 533.3125 676.964844 533.597656 L 676.964844 533.9375 C 676.925781 534.675781 676.777344 535.390625 676.511719 536.078125 L 690.324219 549.609375 C 690.996094 549.347656 691.691406 549.195312 692.414062 549.160156 C 692.894531 549.160156 693.371094 549.207031 693.84375 549.300781 C 694.3125 549.394531 694.773438 549.535156 695.21875 549.71875 C 695.660156 549.902344 696.085938 550.128906 696.484375 550.394531 C 696.882812 550.664062 697.253906 550.964844 697.59375 551.304688 C 697.933594 551.648438 698.238281 552.015625 698.507812 552.417969 C 698.773438 552.816406 699 553.238281 699.183594 553.683594 C 699.367188 554.128906 699.507812 554.585938 699.601562 555.058594 C 699.695312 555.53125 699.742188 556.007812 699.742188 556.488281 C 699.742188 556.96875 699.695312 557.445312 699.601562 557.917969 C 699.507812 558.390625 699.367188 558.851562 699.183594 559.292969 C 699 559.738281 698.773438 560.160156 698.507812 560.5625 C 698.238281 560.960938 697.933594 561.332031 697.59375 561.671875 C 697.253906 562.011719 696.882812 562.316406 696.484375 562.582031 C 696.085938 562.851562 695.660156 563.078125 695.21875 563.261719 C 694.773438 563.445312 694.3125 563.585938 693.84375 563.679688 C 693.371094 563.773438 692.894531 563.820312 692.414062 563.820312 C 691.929688 563.820312 691.453125 563.773438 690.980469 563.679688 C 690.511719 563.585938 690.050781 563.445312 689.605469 563.261719 C 689.164062 563.078125 688.738281 562.851562 688.339844 562.582031 C 687.941406 562.316406 687.570312 562.011719 687.230469 561.671875 C 686.890625 561.332031 686.585938 560.960938 686.316406 560.5625 C 686.050781 560.160156 685.824219 559.738281 685.640625 559.292969 C 685.457031 558.851562 685.316406 558.390625 685.222656 557.917969 C 685.128906 557.445312 685.082031 556.96875 685.082031 556.488281 C 685.117188 555.769531 685.269531 555.074219 685.535156 554.402344 L 672.847656 541.71875 L 672.847656 571.203125 C 673.460938 571.496094 674.023438 571.867188 674.53125 572.316406 C 675.039062 572.769531 675.476562 573.28125 675.839844 573.855469 C 676.203125 574.425781 676.480469 575.039062 676.671875 575.691406 C 676.863281 576.34375 676.960938 577.007812 676.964844 577.6875 C 676.964844 578.171875 676.917969 578.648438 676.824219 579.117188 C 676.730469 579.589844 676.589844 580.050781 676.40625 580.492188 C 676.222656 580.9375 675.996094 581.359375 675.726562 581.761719 C 675.460938 582.160156 675.15625 582.53125 674.816406 582.871094 C 674.476562 583.210938 674.105469 583.515625 673.707031 583.785156 C 673.304688 584.050781 672.882812 584.277344 672.4375 584.460938 C 671.996094 584.644531 671.535156 584.785156 671.0625 584.878906 C 670.59375 584.972656 670.113281 585.019531 669.632812 585.019531 C 669.152344 585.019531 668.675781 584.972656 668.203125 584.878906 C 667.730469 584.785156 667.273438 584.644531 666.828125 584.460938 C 666.382812 584.277344 665.960938 584.050781 665.5625 583.785156 C 665.160156 583.515625 664.792969 583.210938 664.449219 582.871094 C 664.109375 582.53125 663.808594 582.160156 663.539062 581.761719 C 663.273438 581.359375 663.046875 580.9375 662.863281 580.492188 C 662.679688 580.050781 662.539062 579.589844 662.445312 579.117188 C 662.351562 578.648438 662.304688 578.171875 662.304688 577.6875 C 662.308594 577.046875 662.398438 576.414062 662.574219 575.796875 C 662.75 575.175781 663 574.59375 663.335938 574.042969 C 663.667969 573.492188 664.066406 572.992188 664.53125 572.550781 C 665 572.109375 665.515625 571.734375 666.082031 571.429688 L 666.082031 539.96875 C 665.53125 539.675781 665.027344 539.316406 664.570312 538.886719 C 664.117188 538.460938 663.722656 537.984375 663.390625 537.457031 C 663.058594 536.925781 662.800781 536.363281 662.617188 535.765625 C 662.433594 535.171875 662.328125 534.558594 662.304688 533.9375 C 662.339844 533.214844 662.492188 532.519531 662.753906 531.851562 L 652.042969 521.136719 L 629.996094 542.957031 C 629.554688 543.398438 629.132812 543.863281 628.734375 544.34375 C 628.335938 544.828125 627.964844 545.328125 627.617188 545.847656 C 627.265625 546.367188 626.945312 546.902344 626.648438 547.457031 C 626.355469 548.007812 626.085938 548.570312 625.847656 549.148438 C 625.605469 549.726562 625.394531 550.316406 625.210938 550.914062 C 625.03125 551.511719 624.878906 552.121094 624.753906 552.734375 C 624.632812 553.347656 624.542969 553.964844 624.480469 554.589844 C 624.417969 555.210938 624.386719 555.835938 624.386719 556.460938 C 624.386719 557.085938 624.417969 557.710938 624.480469 558.335938 C 624.542969 558.957031 624.632812 559.574219 624.753906 560.1875 C 624.878906 560.800781 625.03125 561.410156 625.210938 562.007812 C 625.394531 562.605469 625.605469 563.195312 625.847656 563.773438 C 626.085938 564.351562 626.355469 564.914062 626.648438 565.464844 C 626.945312 566.019531 627.265625 566.554688 627.617188 567.074219 C 627.964844 567.59375 628.335938 568.09375 628.734375 568.578125 C 629.132812 569.0625 629.554688 569.523438 629.996094 569.964844 L 655.933594 595.957031 C 656.375 596.398438 656.835938 596.820312 657.320312 597.21875 C 657.804688 597.617188 658.304688 597.988281 658.824219 598.339844 C 659.34375 598.6875 659.878906 599.007812 660.429688 599.304688 C 660.984375 599.601562 661.546875 599.867188 662.125 600.109375 C 662.703125 600.347656 663.292969 600.558594 663.890625 600.742188 C 664.488281 600.921875 665.09375 601.074219 665.710938 601.199219 C 666.324219 601.320312 666.941406 601.414062 667.5625 601.472656 C 668.1875 601.535156 668.8125 601.566406 669.4375 601.566406 C 670.0625 601.566406 670.6875 601.535156 671.308594 601.472656 C 671.933594 601.414062 672.550781 601.320312 673.164062 601.199219 C 673.777344 601.074219 674.382812 600.921875 674.984375 600.742188 C 675.582031 600.558594 676.167969 600.347656 676.746094 600.109375 C 677.324219 599.867188 677.890625 599.601562 678.441406 599.304688 C 678.992188 599.007812 679.527344 598.6875 680.050781 598.339844 C 680.570312 597.988281 681.070312 597.617188 681.554688 597.21875 C 682.035156 596.820312 682.5 596.398438 682.941406 595.957031 L 708.933594 570.019531 C 709.375 569.578125 709.796875 569.117188 710.195312 568.632812 C 710.59375 568.152344 710.964844 567.648438 711.3125 567.128906 C 711.664062 566.609375 711.984375 566.074219 712.28125 565.523438 C 712.574219 564.972656 712.84375 564.40625 713.082031 563.828125 C 713.324219 563.25 713.535156 562.664062 713.71875 562.0625 C 713.898438 561.464844 714.050781 560.859375 714.171875 560.246094 C 714.296875 559.632812 714.386719 559.011719 714.449219 558.390625 C 714.511719 557.769531 714.542969 557.144531 714.542969 556.515625 C 714.542969 555.890625 714.511719 555.265625 714.449219 554.644531 C 714.386719 554.023438 714.296875 553.402344 714.171875 552.789062 C 714.050781 552.175781 713.898438 551.570312 713.71875 550.972656 C 713.535156 550.371094 713.324219 549.785156 713.082031 549.207031 C 712.84375 548.628906 712.574219 548.0625 712.28125 547.511719 C 711.984375 546.960938 711.660156 546.425781 711.3125 545.90625 C 710.964844 545.386719 710.59375 544.882812 710.195312 544.402344 C 709.796875 543.917969 709.375 543.457031 708.933594 543.015625 Z M 708.933594 542.957031 " fill-opacity="1" fill-rule="nonzero"/></g><g clip-path="url(#49590d378b)"><path fill="#737373" d="M 91.964844 366.867188 C 91.152344 366.867188 90.496094 367.523438 90.496094 368.332031 L 90.496094 424.355469 C 90.496094 424.878906 90.777344 425.363281 91.230469 425.625 L 119.730469 442.0625 C 120.175781 442.320312 120.71875 442.324219 121.167969 442.082031 L 151.328125 425.554688 C 151.796875 425.296875 152.089844 424.804688 152.089844 424.269531 L 152.089844 368.332031 C 152.089844 367.523438 151.433594 366.867188 150.621094 366.867188 Z M 81.699219 368.332031 C 81.699219 362.664062 86.292969 358.066406 91.964844 358.066406 L 150.621094 358.066406 C 156.292969 358.066406 160.886719 362.664062 160.886719 368.332031 L 160.886719 424.269531 C 160.886719 428.019531 158.84375 431.46875 155.554688 433.269531 L 125.398438 449.796875 C 122.253906 451.519531 118.441406 451.476562 115.335938 449.6875 L 86.835938 433.246094 C 83.65625 431.414062 81.699219 428.023438 81.699219 424.355469 Z M 103.695312 382.996094 C 103.695312 380.566406 105.664062 378.597656 108.09375 378.597656 L 135.167969 378.597656 C 137.597656 378.597656 139.566406 380.566406 139.566406 382.996094 C 139.566406 385.425781 137.597656 387.398438 135.167969 387.398438 L 112.492188 387.398438 L 112.492188 397.4375 L 135.167969 397.4375 C 137.597656 397.4375 139.566406 399.40625 139.566406 401.835938 L 139.566406 418.757812 C 139.566406 420.421875 138.625 421.945312 137.136719 422.691406 L 123.597656 429.460938 C 122.359375 430.082031 120.902344 430.082031 119.664062 429.460938 L 106.128906 422.691406 C 104.636719 421.945312 103.695312 420.421875 103.695312 418.757812 L 103.695312 415.375 C 103.695312 412.945312 105.664062 410.972656 108.09375 410.972656 C 110.523438 410.972656 112.492188 412.945312 112.492188 415.375 L 112.492188 416.039062 L 121.632812 420.605469 L 130.769531 416.039062 L 130.769531 406.234375 L 108.09375 406.234375 C 105.664062 406.234375 103.695312 404.265625 103.695312 401.835938 Z M 103.695312 382.996094 " fill-opacity="1" fill-rule="nonzero"/></g><g clip-path="url(#6be6ea9580)"><path fill="#737373" d="M 411.273438 99.175781 C 408.683594 99.175781 406.589844 97.070312 406.589844 94.464844 C 406.589844 91.863281 408.683594 89.761719 411.273438 89.761719 C 413.863281 89.761719 415.960938 91.863281 415.960938 94.464844 C 415.960938 97.070312 413.863281 99.175781 411.273438 99.175781 M 396.917969 107.460938 C 424.203125 107.460938 422.5 95.566406 422.5 95.566406 L 422.46875 83.25 L 396.433594 83.25 L 396.433594 79.550781 L 432.804688 79.550781 C 432.804688 79.550781 450.261719 81.539062 450.261719 53.871094 C 450.261719 26.203125 435.027344 27.175781 435.027344 27.175781 L 425.933594 27.175781 L 425.933594 40.023438 C 425.933594 40.023438 426.421875 55.332031 410.941406 55.332031 L 385.117188 55.332031 C 385.117188 55.332031 370.613281 55.101562 370.613281 69.433594 L 370.613281 93.121094 C 370.613281 93.121094 368.410156 107.460938 396.917969 107.460938 M 381.792969 8.285156 C 384.382812 8.285156 386.472656 10.390625 386.472656 12.996094 C 386.472656 15.601562 384.382812 17.699219 381.792969 17.699219 C 379.203125 17.699219 377.109375 15.601562 377.109375 12.996094 C 377.109375 10.390625 379.203125 8.285156 381.792969 8.285156 M 396.144531 0 C 368.867188 0 370.570312 11.894531 370.570312 11.894531 L 370.601562 24.210938 L 396.632812 24.210938 L 396.632812 27.910156 L 360.257812 27.910156 C 360.257812 27.910156 342.800781 25.921875 342.800781 53.589844 C 342.800781 81.257812 358.039062 80.285156 358.039062 80.285156 L 367.128906 80.285156 L 367.128906 67.4375 C 367.128906 67.4375 366.640625 52.128906 382.125 52.128906 L 407.945312 52.128906 C 407.945312 52.128906 422.449219 52.359375 422.449219 38.027344 L 422.449219 14.339844 C 422.449219 14.339844 424.652344 0 396.144531 0 " fill-opacity="1" fill-rule="evenodd"/></g><g clip-path="url(#a65f8aad01)"><g clip-path="url(#ce55815bc4)"><g clip-path="url(#cd63ffc45c)"><path fill="#737373" d="M 654.675781 272.613281 C 648.453125 266.390625 641.425781 262.71875 633.628906 262.121094 C 625.886719 261.523438 617.960938 264 609.964844 268.96875 C 608.21875 270.054688 607.488281 272.226562 608.222656 274.144531 C 608.957031 276.0625 610.949219 277.191406 612.972656 276.835938 C 617.636719 276.011719 621.199219 276.28125 623.886719 277.277344 C 626.492188 278.242188 628.582031 279.996094 630.191406 282.789062 C 631.820312 285.609375 631.796875 289.074219 631.5625 294.710938 L 631.554688 294.894531 C 631.375 299.144531 631.15625 304.332031 632.457031 309.824219 C 633.808594 315.523438 636.734375 321.375 642.546875 327.1875 C 648.769531 333.410156 655.796875 337.078125 663.59375 337.679688 C 671.335938 338.273438 679.261719 335.800781 687.257812 330.828125 C 689.003906 329.746094 689.734375 327.574219 689 325.65625 C 688.265625 323.738281 686.273438 322.605469 684.25 322.964844 C 679.585938 323.789062 676.023438 323.519531 673.335938 322.523438 C 670.730469 321.558594 668.640625 319.800781 667.03125 317.007812 C 665.402344 314.191406 665.425781 310.726562 665.664062 305.085938 L 665.667969 304.90625 C 665.847656 300.652344 666.066406 295.46875 664.765625 289.972656 C 663.414062 284.273438 660.488281 278.425781 654.675781 272.613281 Z M 654.675781 272.613281 " fill-opacity="1" fill-rule="nonzero"/></g></g></g><g clip-path="url(#8c1115aeda)"><g clip-path="url(#22f5e1fc2a)"><g clip-path="url(#545df45a63)"><path fill="#737373" d="M 606.164062 278.675781 C 599.941406 272.453125 592.914062 268.785156 585.117188 268.183594 C 577.375 267.589844 569.449219 270.0625 561.453125 275.035156 C 559.707031 276.117188 558.976562 278.289062 559.710938 280.207031 C 560.445312 282.125 562.4375 283.253906 564.460938 282.898438 C 569.125 282.074219 572.6875 282.34375 575.375 283.339844 C 577.980469 284.304688 580.070312 286.0625 581.679688 288.855469 C 583.308594 291.671875 583.285156 295.136719 583.046875 300.777344 L 583.042969 300.957031 C 582.863281 305.207031 582.644531 310.394531 583.945312 315.886719 C 585.296875 321.589844 588.222656 327.4375 594.035156 333.25 C 600.257812 339.472656 607.285156 343.140625 615.082031 343.742188 C 622.824219 344.335938 630.75 341.863281 638.746094 336.894531 C 640.492188 335.808594 641.222656 333.636719 640.488281 331.71875 C 639.753906 329.800781 637.761719 328.671875 635.738281 329.027344 C 631.074219 329.851562 627.511719 329.582031 624.824219 328.585938 C 622.21875 327.621094 620.128906 325.863281 618.519531 323.070312 C 616.890625 320.253906 616.914062 316.789062 617.148438 311.152344 L 617.15625 310.96875 C 617.335938 306.71875 617.554688 301.53125 616.253906 296.039062 C 614.902344 290.335938 611.976562 284.488281 606.164062 278.675781 Z M 606.164062 278.675781 " fill-opacity="1" fill-rule="nonzero"/></g></g></g><path fill="#737373" d="M 302.683594 142.65625 C 304.234375 141.882812 305.855469 140.945312 307.441406 139.84375 L 307.441406 148.664062 C 307.441406 157.796875 292.632812 165.203125 274.367188 165.203125 C 256.101562 165.203125 241.292969 157.796875 241.292969 148.664062 L 241.292969 139.84375 C 242.878906 140.945312 244.5 141.882812 246.050781 142.65625 C 253.867188 146.566406 263.894531 148.664062 274.367188 148.664062 C 284.839844 148.664062 294.867188 146.566406 302.683594 142.65625 Z M 302.683594 142.65625 " fill-opacity="1" fill-rule="nonzero"/><path fill="#737373" d="M 241.292969 167.40625 L 241.292969 176.226562 C 241.292969 185.359375 256.101562 192.761719 274.367188 192.761719 C 292.632812 192.761719 307.441406 185.359375 307.441406 176.226562 L 307.441406 167.40625 C 305.855469 168.507812 304.234375 169.441406 302.683594 170.21875 C 294.867188 174.128906 284.839844 176.226562 274.367188 176.226562 C 263.894531 176.226562 253.867188 174.128906 246.050781 170.21875 C 244.5 169.441406 242.878906 168.507812 241.292969 167.40625 Z M 241.292969 167.40625 " fill-opacity="1" fill-rule="nonzero"/><g clip-path="url(#18cc254d56)"><path fill="#737373" d="M 274.367188 104.566406 C 292.632812 104.566406 307.441406 111.972656 307.441406 121.105469 C 307.441406 130.238281 292.632812 137.640625 274.367188 137.640625 C 256.101562 137.640625 241.292969 130.238281 241.292969 121.105469 C 241.292969 111.972656 256.101562 104.566406 274.367188 104.566406 Z M 274.367188 104.566406 " fill-opacity="1" fill-rule="nonzero"/></g><path fill="#737373" d="M 614.265625 100.726562 L 628.804688 100.726562 L 628.804688 115.644531 L 614.265625 115.644531 Z M 628.808594 123.105469 L 628.808594 156.816406 C 628.941406 158.117188 629.015625 159.625 629.015625 161.152344 C 629.015625 167.535156 627.6875 173.601562 625.296875 179.101562 L 625.410156 178.8125 C 622.816406 183.6875 618.683594 187.457031 613.667969 189.519531 L 613.511719 189.578125 L 600.011719 183.15625 C 604.988281 181.390625 609.003906 177.953125 611.476562 173.539062 L 611.527344 173.429688 C 613.609375 169.277344 614.265625 164.460938 614.265625 151.808594 L 614.265625 123.101562 L 628.804688 123.101562 Z M 591.128906 134.527344 C 589.753906 134.046875 588.164062 133.769531 586.515625 133.769531 C 586.414062 133.769531 586.308594 133.769531 586.207031 133.773438 L 586.222656 133.773438 C 586 133.757812 585.742188 133.746094 585.484375 133.746094 C 579.421875 133.746094 574.503906 138.664062 574.503906 144.726562 C 574.503906 145.261719 574.542969 145.789062 574.617188 146.300781 L 574.609375 146.242188 C 574.546875 146.675781 574.507812 147.179688 574.507812 147.691406 C 574.507812 153.539062 579.25 158.28125 585.097656 158.28125 C 585.460938 158.28125 585.820312 158.261719 586.175781 158.226562 L 586.128906 158.230469 C 587.894531 158.230469 589.628906 158.09375 591.320312 157.828125 L 591.132812 157.851562 L 591.132812 134.527344 Z M 591.128906 100.648438 L 605.667969 100.648438 L 605.667969 167.960938 C 600.007812 169.1875 593.492188 169.90625 586.816406 169.945312 L 586.785156 169.945312 C 569.03125 169.945312 559.78125 161.917969 559.78125 146.527344 C 559.757812 146.128906 559.742188 145.664062 559.742188 145.195312 C 559.742188 132.382812 570.128906 121.996094 582.941406 121.996094 C 583.59375 121.996094 584.246094 122.023438 584.886719 122.078125 L 584.800781 122.070312 C 584.933594 122.066406 585.089844 122.066406 585.25 122.066406 C 587.339844 122.066406 589.363281 122.34375 591.289062 122.863281 L 591.125 122.828125 Z M 591.128906 100.648438 " fill-opacity="1" fill-rule="nonzero"/></svg>